<svg xmlns="http://www.w3.org/2000/svg" xmlns:xlink="http://www.w3.org/1999/xlink" width="32" height="266" viewBox="0 0 32 266"><svg width="17" height="21" viewBox="-5 -5 17 21" id="arrow-next" y="0"><path d="M1.5 0L7 5.5 1.5 11 0 9.5l4-4-4-4L1.5 0z" fill="#8696A6" fill-rule="evenodd"/></svg>
<svg width="17" height="21" viewBox="-5 -5 17 21" id="arrow-next-white" y="21"><path d="M1.5 0L7 5.5 1.5 11 0 9.5l4-4-4-4L1.5 0z" fill="#fff" fill-rule="evenodd"/></svg>
<svg width="17" height="21" viewBox="-5 -5 17 21" id="arrow-prev" y="42"><title>arrow-prev</title><desc>Created with Sketch Beta.</desc><path d="M5.5 0L0 5.5 5.5 11 7 9.5l-4-4 4-4L5.5 0z" fill="#8696A6" fill-rule="evenodd"/></svg>
<svg width="17" height="21" viewBox="-5 -5 17 21" id="arrow-prev-white" y="63"><title>arrow-prev</title><desc>Created with Sketch Beta.</desc><path d="M5.5 0L0 5.5 5.5 11 7 9.5l-4-4 4-4L5.5 0z" fill="#fff" fill-rule="evenodd"/></svg>
<svg width="21" height="22" viewBox="-5 -5 21 22" id="bin" y="84"><title>Shape 4</title><desc>Created with Sketch.</desc><path d="M3 12h5c.5 0 1-.5 1-.98L9.5 3h-8l.5 8.02c0 .48.5.98 1 .98zM7.5 1c0-.5-.5-1-1-1h-2c-.5 0-1 .5-1 1h-2c-.454 0-1 .5-1 1h10c-.003-.494-.447-.992-1-1h-2zm-2 3c-.276 0-.5.233-.5.503v5.994c0 .278.232.503.5.503.276 0 .5-.233.5-.503V4.503C6 4.225 5.768 4 5.5 4zm1.998.004c-.274-.024-.512.19-.532.46L6.54 10.44c-.02.28.194.524.46.547.274.024.513-.19.532-.46L7.96 4.55c.018-.278-.196-.523-.462-.546zM3.5 4c.276 0 .517.233.536.503l.428 5.994c.02.278-.196.503-.464.503-.276 0-.517-.233-.536-.503l-.428-5.994C3.016 4.225 3.232 4 3.5 4z" fill="#F36161" fill-rule="evenodd"/></svg>
<svg width="19" height="23" viewBox="-5 -5 19 23" id="bulb" y="106"><title>bulb</title><desc>Created with Sketch Beta.</desc><g transform="translate(-328 -727)" fill="none" fill-rule="evenodd"><path d="M336.457 732.777c-.72 1.097-2.03 1.54-2.03 3.185V737h-3.857v-1.038c0-1.644-1.342-2.152-2.016-3.185-.3-.47-.48-.982-.536-1.517l-.018-.36c0-1.04.466-2.02 1.317-2.757.85-.74 1.98-1.143 3.183-1.143.433 0 .86.053 1.27.157.72.184 1.38.524 1.91.986.85.737 1.32 1.716 1.32 2.757l-.02.36c-.058.535-.237 1.047-.523 1.517zm-2.03 5.223v.72l-1.282 1.28h-1.328l-1.247-1.28V738h3.857z" fill="#8596A7"/><rect stroke="#D0D3D9" stroke-dasharray="2" x="312" y="713" width="164" height="75" rx="3"/></g></svg>
<svg width="32" height="32" viewBox="-5 -5 32 32" id="close" y="129"><title>close</title><desc>Created with Sketch Beta.</desc><path d="M21 2.43L19.57 1 11 9.57 2.43 1 1 2.43 9.57 11 1 19.57 2.43 21 11 12.43 19.57 21 21 19.57 12.43 11 21 2.43z" fill="#fff" fill-rule="evenodd"/></svg>
<svg width="20" height="20" viewBox="-5 -5 20 20" id="close-sm" y="161"><title>close</title><desc>Created with Sketch Beta.</desc><path d="M10 .715L9.285 0 5 4.285.715 0 0 .715 4.285 5 0 9.285.715 10 5 5.715 9.285 10 10 9.285 5.715 5 10 .715z" fill="#000" fill-rule="evenodd"/></svg>
<svg width="26" height="20" viewBox="-5 -5 26 20" id="gallery" y="181"><title>gallery</title><desc>Created with Sketch Beta.</desc><g transform="translate(0 0)" fill="none" fill-rule="evenodd"><path d="M13.01 0C12.45 0 12 .456 12 .995v8.01c0 .55.443.995 1.01.995h1.98c.558 0 1.01-.456 1.01-.995V.995C16 .445 15.557 0 14.99 0h-1.98zM13 1v8h2V1h-2z" fill="#F26161"/><path d="M7.01 0C6.45 0 6 .456 6 .995v8.01c0 .55.443.995 1.01.995h1.98C9.55 10 10 9.544 10 9.005V.995C10 .445 9.557 0 8.99 0H7.01zM7 1v8h2V1H7z" fill="#80AAFF"/><path d="M1.01 0C.45 0 0 .456 0 .995v8.01c0 .55.443.995 1.01.995h1.98C3.55 10 4 9.544 4 9.005V.995C4 .445 3.557 0 2.99 0H1.01zM1 1v8h2V1H1z" fill="#8FCC52"/></g></svg>
<svg width="23" height="23" viewBox="-5 -5 23 23" id="loop" y="201"><title>loop</title><desc>Created with Sketch.</desc><g transform="translate(-313 -171) translate(304 164)" fill="none" fill-rule="evenodd"><rect stroke="#D0D3D9" width="178" height="26" rx="32"/><path d="M21.874 18.592l-3.724-3.806c.536-.797.85-1.755.85-2.787 0-2.762-2.24-5-5-5s-5 2.238-5 5c0 2.76 2.24 5 5 5 1.02 0 1.97-.31 2.76-.837l3.708 3.68 1.406-1.25zM14 15c-1.657 0-3-1.344-3-3 0-1.657 1.343-3 3-3 1.656 0 3 1.343 3 3 0 1.656-1.344 3-3 3z" fill="#A1A7B3"/></g></svg>
<svg width="22" height="22" viewBox="-5 -5 22 22" id="pencil" y="224"><title>pen</title><desc>Created with Sketch.</desc><defs><linearGradient x1="23.882%" y1="15.297%" x2="84.813%" y2="76.026%" id="aka"><stop stop-color="#FF9191" offset="0%"/><stop stop-color="#B55858" offset="100%"/></linearGradient><linearGradient x1="28.909%" y1="42.97%" x2="57.03%" y2="71.091%" id="akb"><stop stop-color="#fff" offset="0%"/><stop stop-color="#FFDD7C" offset="100%"/></linearGradient><linearGradient x1="40.351%" y1="42.019%" x2="58.282%" y2="60.078%" id="akc"><stop stop-color="#fff" stop-opacity=".827" offset="0%"/><stop stop-color="#fff" stop-opacity="0" offset="100%"/></linearGradient></defs><g transform="translate(-208 -273)" fill="none" fill-rule="evenodd"><g transform="translate(208.663 273.22)"><path d="M10.134.86C9.464.19 8.73-.166 8.5.065c-.016.015-.03.033-.04.053L7 1.577l.22.22.857.857.276.276L9.43 4.007 10.94 2.5v-.01h-.003c0-.002 0-.002.002-.003.216-.237-.14-.962-.806-1.626z" fill="url(#aka)"/><path d="M7.393 1.183L6.027 2.548l-.157.156.22.22 2.213 2.21 1.523-1.52L8.61 2.397l-.996-.995-.22-.22z" fill="#E3DEDB"/><path d="M9.33 4.107L6.9 1.677l-.11.11-.057.055 2.433 2.43.055-.055.11-.11z" fill="#000"/><path d="M9.607 3.832l-2.433-2.43-.11.11-.055.054 2.432 2.43.055-.054.11-.11z" fill="#000"/><path d="M9.056 4.382l-2.433-2.43-.11.11-.055.055 2.432 2.43.055-.054.11-.11z" fill="#000"/><path d="M6.227 2.348L.997 7.572.01 10.99l.31-.09 3.11-.898 5.23-5.224-.473-.47-.165-.167-.44-.44-.056-.054-.166-.166-.055-.055-.44-.44-.166-.165-.253-.252-.22-.22z" fill="url(#akb)"/><path d="M1.354 10.602l-.478-.478-.478-.477L.01 10.99l1.344-.388z" fill="#000"/><path fill="#FF9191" d="M10.94 2.49c.002.01.002.022.005.03l.012-.01-.018-.02z"/><path d="M6.227 2.348L.997 7.572l1.18.036.038 1.18 1.18.035.036 1.18 5.23-5.225-.61-.607-.607-.607-.608-.608-.608-.607z" fill="#FFC700"/><path d="M6.227 2.348L.997 7.572l1.18.036 4.658-4.653-.608-.607z" fill="#FFDA00"/><path d="M3.395 8.823l.036 1.18 5.23-5.225-.61-.607-4.655 4.653z" fill="#FF8A00"/><path d="M2.215 8.787l1.18.036L8.05 4.17l-.607-.607-5.228 5.224z" fill="#FFA100"/><path d="M7.977 1.81c-.044-.045-.095-.08-.15-.1-.054-.023-.11-.033-.17-.033-.057 0-.115.01-.17.032-.053.02-.105.055-.15.1l-.825.825-4.908 4.903c-.015.015-.02.035-.033.05l.608.02.036 1.178.697.022L7.8 3.923l.827-.826c.044-.044.08-.096.1-.15.023-.054.032-.112.032-.17 0-.057-.01-.115-.032-.17-.022-.053-.057-.105-.1-.15l-.65-.648z" fill="url(#akc)"/><path d="M.876 10.124l-.318-.317L.01 10.99l.866-.866z" opacity=".8" fill="#fff"/></g></g></svg>
<svg width="20" height="20" viewBox="-5 -5 20 20" id="plus" y="246"><title>Shape</title><desc>Created with Sketch Beta.</desc><path d="M10 4H6V0H4v4H0v2h4v4h2V6h4V4z" fill="#8BB648" fill-rule="evenodd"/></svg>
</svg>